# xmcd CD database generated by RipIT
#
# Track frame offsets:
# 150
# 13468
# 26634
# 39922
# 53094
# 66776
# 88191
# 121232
# 134720
# 149217
# 162081
# 170371
# 184213
# 197583
# 211620
# 253787
#
# Disc length: 3545 seconds
#
# Revision: 2
# Processed by: cddbd v1.5.2PL0 Copyright (c) Steve Scherf et al.
# Submitted via: RipIT 3.6.0 www.suwald.com/ripit/ripit.html on 2009-03-07 at 23:15
#
DISCID=eb0dd710
DTITLE=Various Artist - Ultimate Piano Works CD 06
DYEAR=1900
DGENRE=Jazz
TTITLE0=Earl Hines - Blues In Thirds
TTITLE1=George Shearing - Have You Met Miss Jones
TTITLE2=Billy Kyle - Contemporary Blues
TTITLE3=Dave Brubeck - You Stepped Out Of A Dream
TTITLE4=Art Tatum - Hallelujah
TTITLE5=Bud Powell - Un Poco Logo
TTITLE6=Erroll Garner - Erroll's Reverie
TTITLE7=Teddy Wilson - Little Things That Mean So Much
TTITLE8=Joe Sullivan - High Dudgeon
TTITLE9=Art Tatum - Gone With The Wind
TTITLE10=Oscar Peterson - Whispering
TTITLE11=Joe Sullivan - Fidgety Feet
TTITLE12=Thelonius Monk - Criss Cross
TTITLE13=Joe Sullivan - Deep Purple
TTITLE14=Erroll Garner - I Got Rhythm
TTITLE15=Art Tatum - Get Happy
EXTD=
EXTT0=
EXTT1=
EXTT2=
EXTT3=
EXTT4=
EXTT5=
EXTT6=
EXTT7=
EXTT8=
EXTT9=
EXTT10=
EXTT11=
EXTT12=
EXTT13=
EXTT14=
EXTT15=
PLAYORDER=
